o Plane2
v -0.25 2.5 0
v 0.25 2.5 0
v -0.25 0.5 0
v 0.25 0.5 0
vt 0 1
vt 1 1
vt 0 0
vt 1 0
vn 0 0 1
vn 0 0 1
vn 0 0 1
vn 0 0 1
f 1/1/1 3/3/3 2/2/2
f 3/3/3 4/4/4 2/2/2
#o Plane
v -0.25 -0.5 0
v 0.25 -0.5 0
v -0.25 -2.5 0
v 0.25 -2.5 0
vt 0 1
vt 1 1
vt 0 0
vt 1 0
vn 0 0 1
vn 0 0 1
vn 0 0 1
vn 0 0 1
f 5/5/5 7/7/7 6/6/6
f 7/7/7 8/8/8 6/6/6
#o Plane
v 0.5 0.25 0
v 2.5 0.25 0
v 0.5 -0.25 0
v 2.5 -0.25 0
vt 0 1
vt 1 1
vt 0 0
vt 1 0
vn 0 0 1
vn 0 0 1
vn 0 0 1
vn 0 0 1
f 9/9/9 11/11/11 10/10/10
f 11/11/11 12/12/12 10/10/10
#o Plane
v -2.5 0.25 0
v -0.5 0.25 0
v -2.5 -0.25 0
v -0.5 -0.25 0
vt 0 1
vt 1 1
vt 0 0
vt 1 0
vn 0 0 1
vn 0 0 1
vn 0 0 1
vn 0 0 1
f 13/13/13 15/15/15 14/14/14
f 15/15/15 16/16/16 14/14/14
